<svg width="47" height="47" viewBox="0 0 47 47" fill="none" xmlns="http://www.w3.org/2000/svg">
<path d="M23.5 0.388672C10.6562 0.388672 0.25 10.7949 0.25 23.6387C0.25 36.4824 10.6562 46.8887 23.5 46.8887C36.3438 46.8887 46.75 36.4824 46.75 23.6387C46.75 10.7949 36.3438 0.388672 23.5 0.388672ZM23.5 42.3887C13.0938 42.3887 4.75 34.0449 4.75 23.6387C4.75 13.3262 13.0938 4.88867 23.5 4.88867C33.8125 4.88867 42.25 13.3262 42.25 23.6387C42.25 34.0449 33.8125 42.3887 23.5 42.3887ZM29.2188 32.6387C29.7812 33.0137 30.4375 32.9199 30.8125 32.3574L32.5938 30.0137C32.9688 29.4512 32.875 28.7949 32.3125 28.4199L26.125 23.8262V10.5137C26.125 9.95117 25.5625 9.38867 25 9.38867H22C21.3438 9.38867 20.875 9.95117 20.875 10.5137V25.9824C20.875 26.2637 20.9688 26.6387 21.25 26.8262L29.2188 32.6387Z" fill="#7FC5EB"/>
</svg>
