<svg width="49" height="37" viewBox="0 0 49 37" fill="none" xmlns="http://www.w3.org/2000/svg">
<path d="M44 0.638672H5C2.46875 0.638672 0.5 2.70117 0.5 5.13867V32.1387C0.5 34.6699 2.46875 36.6387 5 36.6387H44C46.4375 36.6387 48.5 34.6699 48.5 32.1387V5.13867C48.5 2.70117 46.4375 0.638672 44 0.638672ZM44 5.13867V8.98242C41.8438 10.7637 38.4688 13.3887 31.3438 19.0137C29.75 20.2324 26.6562 23.2324 24.5 23.1387C22.25 23.2324 19.1562 20.2324 17.5625 19.0137C10.4375 13.3887 7.0625 10.7637 5 8.98242V5.13867H44ZM5 32.1387V14.7949C7.0625 16.4824 10.1562 18.9199 14.75 22.5762C16.8125 24.1699 20.4688 27.7324 24.5 27.6387C28.4375 27.7324 32 24.1699 34.1562 22.5762C38.75 18.9199 41.8438 16.4824 44 14.7949V32.1387H5Z" fill="#7FC5EB"/>
</svg>
