<svg width="37" height="50" viewBox="0 0 37 50" fill="none" xmlns="http://www.w3.org/2000/svg">
<path d="M18.5 0.638672C8.46875 0.638672 0.5 8.79492 0.5 18.6387C0.5 25.3887 2.65625 27.4512 14.6562 46.5762C16.4375 49.3887 20.4688 49.3887 22.25 46.5762C34.25 27.4512 36.5 25.3887 36.5 18.6387C36.5 8.70117 28.3438 0.638672 18.5 0.638672ZM18.5 44.1387C6.5 25.0137 5 23.7949 5 18.6387C5 11.2324 11 5.13867 18.5 5.13867C25.9062 5.13867 32 11.2324 32 18.6387C32 23.7949 30.5 24.8262 18.5 44.1387ZM11 18.6387C11 22.8574 14.2812 26.1387 18.5 26.1387C22.625 26.1387 26 22.8574 26 18.6387C26 14.5137 22.625 11.1387 18.5 11.1387C14.2812 11.1387 11 14.5137 11 18.6387Z" fill="#7FC5EB"/>
</svg>
