<svg width="49" height="49" viewBox="0 0 49 49" fill="none" xmlns="http://www.w3.org/2000/svg">
<path d="M45.125 2.79492L36.3125 0.826172C34.25 0.357422 32.1875 1.38867 31.4375 3.26367L27.3125 12.8262C26.5625 14.5137 27.0312 16.5762 28.5312 17.7949L32.2812 20.8887C29.6562 25.7637 25.5312 29.7949 20.6562 32.5137L17.5625 28.7637C16.3438 27.2637 14.2812 26.7949 12.5938 27.5449L3.03125 31.5762C1.15625 32.4199 0.125 34.4824 0.59375 36.5449L2.5625 45.3574C3.03125 47.3262 4.8125 48.6387 6.78125 48.6387C29.75 48.6387 48.5 30.0762 48.5 7.01367C48.5 5.04492 47.0938 3.26367 45.125 2.79492ZM6.96875 44.1387L5 35.7012L14.1875 31.7637L19.4375 38.1387C28.7188 33.7324 33.5 28.9512 37.9062 19.6699L31.5312 14.4199L35.4688 5.23242L44 7.20117C43.9062 27.5449 27.3125 44.0449 6.96875 44.1387Z" fill="#7FC5EB"/>
</svg>
